<svg width="27" height="27" viewBox="0 0 27 27" fill="none" xmlns="http://www.w3.org/2000/svg">
<rect width="26.4055" height="26.4055" rx="6.97944" fill="black"/>
<rect width="26.4055" height="26.4055" rx="6.97944" fill="url(#paint0_linear_718_15158)"/>
<path d="M13.5151 7.82471C15.0705 7.58016 16.4768 8.78245 16.4771 10.3569V15.6899C16.4771 16.8789 15.6595 17.9118 14.5024 18.1851L10.1581 19.2092C9.86924 19.2773 9.70354 19.5933 9.54053 19.8413L8.26416 21.7827C8.00955 22.1698 7.45152 22.1971 7.16064 21.8364L5.86475 20.23C5.80231 20.1525 5.72029 20.089 5.62224 20.0723C4.43751 19.8701 3.48975 18.8406 3.48975 17.5444V11.5933C3.48994 10.3315 4.40833 9.25725 5.65479 9.06104L13.5151 7.82471Z" fill="white" fill-opacity="0.51"/>
<path d="M19.9023 4.45166C21.4579 4.20696 22.8643 5.41014 22.8643 6.98486V14.0913C22.8643 15.2803 22.0469 16.3133 20.8896 16.5864L15.4169 17.8778C15.1715 17.9357 15.0193 18.1814 14.8809 18.3921L13.1562 21.0142C12.9017 21.4009 12.3446 21.428 12.0537 21.0679L10.6895 19.3768C10.5128 19.1577 10.2381 19.0498 9.95804 19.0217C8.69429 18.8948 7.65348 17.8295 7.65332 16.4712V8.5708C7.65332 7.30887 8.57182 6.23486 9.81836 6.03857L19.9023 4.45166Z" fill="white"/>
<defs>
<linearGradient id="paint0_linear_718_15158" x1="3.14075" y1="1.27956" x2="22.6832" y2="25.7658" gradientUnits="userSpaceOnUse">
<stop stop-color="#FFCF10"/>
<stop offset="1" stop-color="#FF9C1B"/>
</linearGradient>
</defs>
</svg>
