<svg width="78" height="78" viewBox="0 0 78 78" fill="none" xmlns="http://www.w3.org/2000/svg">
<path d="M19.5 31.6875C19.5 46.4953 31.5047 58.5 46.3125 58.5C49.0303 58.5 51.6506 58.0978 54.1247 57.3422C55.0144 58.0612 56.0747 58.7438 57.3056 59.2922C61.815 61.3153 65.8856 60.45 67.1044 60.1453C65.7638 58.7681 63.8503 56.4403 62.4853 53.0766C68.9447 48.1894 73.125 40.4259 73.125 31.6875C73.125 16.8797 61.1203 4.875 46.3125 4.875C31.5047 4.875 19.5 16.8797 19.5 31.6875Z" fill="#C0C2C9"/>
<path d="M60.9375 29.25H31.6875C31.0172 29.25 30.4688 28.7016 30.4688 28.0312C30.4688 27.3609 31.0172 26.8125 31.6875 26.8125H60.9375C61.6078 26.8125 62.1562 27.3609 62.1562 28.0312C62.1562 28.7016 61.6078 29.25 60.9375 29.25ZM60.9375 21.9375H31.6875C31.0172 21.9375 30.4688 21.3891 30.4688 20.7188C30.4688 20.0484 31.0172 19.5 31.6875 19.5H60.9375C61.6078 19.5 62.1562 20.0484 62.1562 20.7188C62.1562 21.3891 61.6078 21.9375 60.9375 21.9375ZM60.9375 36.5625H31.6875C31.0172 36.5625 30.4688 36.0141 30.4688 35.3438C30.4688 34.6734 31.0172 34.125 31.6875 34.125H60.9375C61.6078 34.125 62.1562 34.6734 62.1562 35.3438C62.1562 36.0141 61.6078 36.5625 60.9375 36.5625ZM60.9375 43.875H31.6875C31.0172 43.875 30.4688 43.3266 30.4688 42.6562C30.4688 41.9859 31.0172 41.4375 31.6875 41.4375H60.9375C61.6078 41.4375 62.1562 41.9859 62.1562 42.6562C62.1562 43.3266 61.6078 43.875 60.9375 43.875Z" fill="#979AA6"/>
<path d="M58.5 41.4375C58.5 56.2453 46.4953 68.25 31.6875 68.25C28.9697 68.25 26.3494 67.8478 23.8753 67.0922C22.9856 67.8112 21.9253 68.4938 20.6944 69.0422C16.185 71.0653 12.1144 70.2 10.8956 69.8953C12.2362 68.5181 14.1497 66.1903 15.5147 62.8266C9.05531 57.9394 4.875 50.1759 4.875 41.4375C4.875 26.6297 16.8797 14.625 31.6875 14.625C46.4953 14.625 58.5 26.6297 58.5 41.4375Z" fill="#DEDFE3"/>
</svg>
