<svg width="16" height="16" viewBox="0 0 16 16" fill="none" xmlns="http://www.w3.org/2000/svg">
<path d="M7.99994 13.3333H13.9999M9.99994 3.33328L11.9999 5.33328M10.9173 2.41461C11.1827 2.14922 11.5426 2.00012 11.9179 2.00012C12.2933 2.00012 12.6532 2.14922 12.9186 2.41461C13.184 2.68001 13.3331 3.03996 13.3331 3.41528C13.3331 3.7906 13.184 4.15055 12.9186 4.41595L4.91194 12.4233C4.75334 12.5819 4.55729 12.6979 4.34194 12.7606L2.42728 13.3193C2.36991 13.336 2.3091 13.337 2.25122 13.3222C2.19333 13.3074 2.1405 13.2772 2.09824 13.235C2.05599 13.1927 2.02587 13.1399 2.01104 13.082C1.99621 13.0241 1.99721 12.9633 2.01394 12.9059L2.57261 10.9913C2.63542 10.7762 2.75144 10.5804 2.90994 10.4219L10.9173 2.41461Z" stroke="#A1A1AA" stroke-width="1.5" stroke-linecap="round" stroke-linejoin="round"/>
</svg>
