<svg width="125" height="32" viewBox="0 0 125 32" fill="none" xmlns="http://www.w3.org/2000/svg">
<path d="M0 4C0 1.79086 1.79086 0 4 0H121C123.209 0 125 1.79086 125 4V28C125 30.2091 123.209 32 121 32H4C1.79086 32 0 30.2091 0 28V4Z" fill="#18181B"/>
<path d="M16.0078 13.5653C15.9624 13.1619 15.7749 12.8494 15.4453 12.6278C15.1158 12.4034 14.701 12.2912 14.201 12.2912C13.843 12.2912 13.5334 12.348 13.272 12.4616C13.0107 12.5724 12.8075 12.7259 12.6626 12.9219C12.5206 13.1151 12.4496 13.3352 12.4496 13.5824C12.4496 13.7898 12.4979 13.9687 12.5945 14.1193C12.6939 14.2699 12.8232 14.3963 12.9822 14.4986C13.1442 14.598 13.3175 14.6818 13.5021 14.75C13.6868 14.8153 13.8643 14.8693 14.0348 14.9119L14.8871 15.1335C15.1655 15.2017 15.451 15.294 15.7436 15.4105C16.0362 15.527 16.3075 15.6804 16.5575 15.8707C16.8075 16.0611 17.0092 16.2969 17.1626 16.5781C17.3189 16.8594 17.397 17.196 17.397 17.5881C17.397 18.0824 17.2692 18.5213 17.0135 18.9048C16.7607 19.2884 16.3928 19.5909 15.9098 19.8125C15.4297 20.0341 14.8487 20.1449 14.1669 20.1449C13.5135 20.1449 12.9482 20.0412 12.4709 19.8338C11.9936 19.6264 11.62 19.3324 11.3501 18.9517C11.0803 18.5682 10.9311 18.1136 10.9027 17.5881H12.2237C12.2493 17.9034 12.3516 18.1662 12.5305 18.3764C12.7124 18.5838 12.9439 18.7386 13.2251 18.8409C13.5092 18.9403 13.8203 18.9901 14.1584 18.9901C14.5305 18.9901 14.8615 18.9318 15.1513 18.8153C15.4439 18.696 15.674 18.5312 15.8416 18.321C16.0092 18.108 16.093 17.8594 16.093 17.5753C16.093 17.3168 16.0192 17.1051 15.8714 16.9403C15.7266 16.7756 15.5291 16.6392 15.2791 16.5312C15.032 16.4233 14.7521 16.3281 14.4396 16.2457L13.4084 15.9645C12.7095 15.7741 12.1555 15.4943 11.7464 15.125C11.3402 14.7557 11.1371 14.267 11.1371 13.6591C11.1371 13.1562 11.2734 12.7173 11.5462 12.3423C11.8189 11.9673 12.1882 11.6761 12.6541 11.4688C13.12 11.2585 13.6456 11.1534 14.2308 11.1534C14.8217 11.1534 15.343 11.2571 15.7947 11.4645C16.2493 11.6719 16.6072 11.9574 16.8686 12.321C17.13 12.6818 17.2663 13.0966 17.2777 13.5653H16.0078ZM21.6893 20.1321C21.0444 20.1321 20.489 19.9943 20.0231 19.7188C19.56 19.4403 19.2021 19.0497 18.9492 18.5469C18.6992 18.0412 18.5742 17.4489 18.5742 16.7699C18.5742 16.0994 18.6992 15.5085 18.9492 14.9972C19.2021 14.4858 19.5543 14.0866 20.006 13.7997C20.4606 13.5128 20.9918 13.3693 21.5998 13.3693C21.9691 13.3693 22.3271 13.4304 22.6737 13.5526C23.0202 13.6747 23.3313 13.8665 23.6069 14.1278C23.8825 14.3892 24.0998 14.7287 24.2589 15.1463C24.418 15.5611 24.4975 16.0653 24.4975 16.6591V17.1108H19.2944V16.1562H23.2489C23.2489 15.821 23.1808 15.5241 23.0444 15.2656C22.908 15.0043 22.7163 14.7983 22.4691 14.6477C22.2248 14.4972 21.9379 14.4219 21.6083 14.4219C21.2504 14.4219 20.9379 14.5099 20.6708 14.6861C20.4066 14.8594 20.2021 15.0866 20.0572 15.3679C19.9151 15.6463 19.8441 15.9489 19.8441 16.2756V17.0213C19.8441 17.4588 19.9208 17.831 20.0742 18.1378C20.2305 18.4446 20.4478 18.679 20.7262 18.8409C21.0046 19 21.3299 19.0795 21.7021 19.0795C21.9435 19.0795 22.1637 19.0455 22.3626 18.9773C22.5614 18.9062 22.7333 18.8011 22.8782 18.6619C23.0231 18.5227 23.1339 18.3509 23.2106 18.1463L24.4165 18.3636C24.32 18.7187 24.1467 19.0298 23.8967 19.2969C23.6495 19.5611 23.3384 19.767 22.9634 19.9148C22.5913 20.0597 22.1665 20.1321 21.6893 20.1321ZM27.1854 16.1136V20H25.9112V13.4545H27.1342V14.5199H27.2152C27.3658 14.1733 27.6016 13.8949 27.9226 13.6847C28.2464 13.4744 28.6541 13.3693 29.1456 13.3693C29.5916 13.3693 29.9822 13.4631 30.3175 13.6506C30.6527 13.8352 30.9126 14.1108 31.0973 14.4773C31.282 14.8437 31.3743 15.2969 31.3743 15.8366V20H30.1001V15.9901C30.1001 15.5156 29.9766 15.1449 29.7294 14.8778C29.4822 14.608 29.1428 14.473 28.7109 14.473C28.4155 14.473 28.1527 14.5369 27.9226 14.6648C27.6953 14.7926 27.5149 14.9801 27.3814 15.2273C27.2507 15.4716 27.1854 15.767 27.1854 16.1136ZM35.5334 20.1278C35.005 20.1278 34.5334 19.9929 34.1186 19.723C33.7067 19.4503 33.3828 19.0625 33.147 18.5597C32.9141 18.054 32.7976 17.4474 32.7976 16.7401C32.7976 16.0327 32.9155 15.4276 33.1513 14.9247C33.3899 14.4219 33.7166 14.0369 34.1314 13.7699C34.5462 13.5028 35.0163 13.3693 35.5419 13.3693C35.9482 13.3693 36.2749 13.4375 36.522 13.5739C36.772 13.7074 36.9652 13.8636 37.1016 14.0426C37.2408 14.2216 37.3487 14.3793 37.4254 14.5156H37.5021V11.2727H38.7763V20H37.532V18.9815H37.4254C37.3487 19.1207 37.2379 19.2798 37.093 19.4588C36.951 19.6378 36.755 19.794 36.505 19.9276C36.255 20.0611 35.9311 20.1278 35.5334 20.1278ZM35.8146 19.0412C36.1811 19.0412 36.4908 18.9446 36.7436 18.7514C36.9993 18.5554 37.1925 18.2841 37.3232 17.9375C37.4567 17.5909 37.5234 17.1875 37.5234 16.7273C37.5234 16.2727 37.4581 15.875 37.3274 15.5341C37.1967 15.1932 37.005 14.9276 36.7521 14.7372C36.4993 14.5469 36.1868 14.4517 35.8146 14.4517C35.4311 14.4517 35.1115 14.5511 34.8558 14.75C34.6001 14.9489 34.407 15.2202 34.2763 15.5639C34.1484 15.9077 34.0845 16.2955 34.0845 16.7273C34.0845 17.1648 34.1499 17.5582 34.2805 17.9077C34.4112 18.2571 34.6044 18.5341 34.8601 18.7386C35.1186 18.9403 35.4368 19.0412 35.8146 19.0412ZM43.7706 20V13.4545H44.9936V14.5199H45.0746C45.2109 14.1591 45.4339 13.8778 45.7436 13.6761C46.0533 13.4716 46.424 13.3693 46.8558 13.3693C47.2933 13.3693 47.6598 13.4716 47.9553 13.6761C48.2536 13.8807 48.4737 14.1619 48.6158 14.5199H48.6839C48.8402 14.1705 49.0888 13.892 49.4297 13.6847C49.7706 13.4744 50.1768 13.3693 50.6484 13.3693C51.2422 13.3693 51.7266 13.5554 52.1016 13.9276C52.4794 14.2997 52.6683 14.8608 52.6683 15.6108V20H51.3942V15.7301C51.3942 15.2869 51.2734 14.9659 51.032 14.767C50.7905 14.5682 50.5021 14.4688 50.1669 14.4688C49.7521 14.4688 49.4297 14.5966 49.1996 14.8523C48.9695 15.1051 48.8544 15.4304 48.8544 15.8281V20H47.5845V15.6491C47.5845 15.294 47.4737 15.0085 47.2521 14.7926C47.0305 14.5767 46.7422 14.4688 46.3871 14.4688C46.1456 14.4688 45.9226 14.5327 45.718 14.6605C45.5163 14.7855 45.353 14.9602 45.228 15.1847C45.1058 15.4091 45.0447 15.669 45.0447 15.9645V20H43.7706ZM57.1971 20.1321C56.5522 20.1321 55.9968 19.9943 55.5309 19.7188C55.0678 19.4403 54.7099 19.0497 54.457 18.5469C54.207 18.0412 54.082 17.4489 54.082 16.7699C54.082 16.0994 54.207 15.5085 54.457 14.9972C54.7099 14.4858 55.0621 14.0866 55.5138 13.7997C55.9684 13.5128 56.4996 13.3693 57.1076 13.3693C57.4769 13.3693 57.8349 13.4304 58.1815 13.5526C58.5281 13.6747 58.8391 13.8665 59.1147 14.1278C59.3903 14.3892 59.6076 14.7287 59.7667 15.1463C59.9258 15.5611 60.0053 16.0653 60.0053 16.6591V17.1108H54.8022V16.1562H58.7567C58.7567 15.821 58.6886 15.5241 58.5522 15.2656C58.4158 15.0043 58.2241 14.7983 57.9769 14.6477C57.7326 14.4972 57.4457 14.4219 57.1161 14.4219C56.7582 14.4219 56.4457 14.5099 56.1786 14.6861C55.9144 14.8594 55.7099 15.0866 55.565 15.3679C55.4229 15.6463 55.3519 15.9489 55.3519 16.2756V17.0213C55.3519 17.4588 55.4286 17.831 55.582 18.1378C55.7383 18.4446 55.9556 18.679 56.234 18.8409C56.5124 19 56.8377 19.0795 57.2099 19.0795C57.4513 19.0795 57.6715 19.0455 57.8704 18.9773C58.0692 18.9062 58.2411 18.8011 58.386 18.6619C58.5309 18.5227 58.6417 18.3509 58.7184 18.1463L59.9244 18.3636C59.8278 18.7187 59.6545 19.0298 59.4045 19.2969C59.1573 19.5611 58.8462 19.767 58.4712 19.9148C58.0991 20.0597 57.6744 20.1321 57.1971 20.1321ZM66.3239 15.0526L65.169 15.2571C65.1207 15.1094 65.044 14.9687 64.9389 14.8352C64.8366 14.7017 64.6974 14.5923 64.5213 14.5071C64.3452 14.4219 64.125 14.3793 63.8608 14.3793C63.5 14.3793 63.1989 14.4602 62.9574 14.6222C62.7159 14.7812 62.5952 14.9872 62.5952 15.2401C62.5952 15.4588 62.6761 15.6349 62.8381 15.7685C63 15.902 63.2614 16.0114 63.6222 16.0966L64.6619 16.3352C65.2642 16.4744 65.7131 16.6889 66.0085 16.9787C66.304 17.2685 66.4517 17.6449 66.4517 18.108C66.4517 18.5 66.3381 18.8494 66.1108 19.1562C65.8864 19.4602 65.5724 19.6989 65.169 19.8722C64.7685 20.0455 64.304 20.1321 63.7756 20.1321C63.0426 20.1321 62.4446 19.9759 61.9815 19.6634C61.5185 19.348 61.2344 18.9006 61.1293 18.321L62.3608 18.1335C62.4375 18.4545 62.5952 18.6974 62.8338 18.8622C63.0724 19.0241 63.3835 19.1051 63.767 19.1051C64.1847 19.1051 64.5185 19.0185 64.7685 18.8452C65.0185 18.669 65.1435 18.4545 65.1435 18.2017C65.1435 17.9972 65.0668 17.8253 64.9134 17.6861C64.7628 17.5469 64.5312 17.4418 64.2188 17.3707L63.1108 17.1278C62.5 16.9886 62.0483 16.767 61.7557 16.4631C61.4659 16.1591 61.321 15.7741 61.321 15.3082C61.321 14.9219 61.429 14.5838 61.6449 14.294C61.8608 14.0043 62.1591 13.7784 62.5398 13.6165C62.9205 13.4517 63.3565 13.3693 63.848 13.3693C64.5554 13.3693 65.1122 13.5227 65.5185 13.8295C65.9247 14.1335 66.1932 14.5412 66.3239 15.0526ZM72.7575 15.0526L71.6026 15.2571C71.5543 15.1094 71.4776 14.9687 71.3725 14.8352C71.2702 14.7017 71.131 14.5923 70.9549 14.5071C70.7788 14.4219 70.5586 14.3793 70.2944 14.3793C69.9336 14.3793 69.6325 14.4602 69.391 14.6222C69.1495 14.7812 69.0288 14.9872 69.0288 15.2401C69.0288 15.4588 69.1097 15.6349 69.2717 15.7685C69.4336 15.902 69.695 16.0114 70.0558 16.0966L71.0955 16.3352C71.6978 16.4744 72.1467 16.6889 72.4421 16.9787C72.7376 17.2685 72.8853 17.6449 72.8853 18.108C72.8853 18.5 72.7717 18.8494 72.5444 19.1562C72.32 19.4602 72.006 19.6989 71.6026 19.8722C71.2021 20.0455 70.7376 20.1321 70.2092 20.1321C69.4762 20.1321 68.8782 19.9759 68.4151 19.6634C67.9521 19.348 67.668 18.9006 67.5629 18.321L68.7944 18.1335C68.8711 18.4545 69.0288 18.6974 69.2674 18.8622C69.506 19.0241 69.8171 19.1051 70.2006 19.1051C70.6183 19.1051 70.9521 19.0185 71.2021 18.8452C71.4521 18.669 71.5771 18.4545 71.5771 18.2017C71.5771 17.9972 71.5004 17.8253 71.3469 17.6861C71.1964 17.5469 70.9648 17.4418 70.6523 17.3707L69.5444 17.1278C68.9336 16.9886 68.4819 16.767 68.1893 16.4631C67.8995 16.1591 67.7546 15.7741 67.7546 15.3082C67.7546 14.9219 67.8626 14.5838 68.0785 14.294C68.2944 14.0043 68.5927 13.7784 68.9734 13.6165C69.354 13.4517 69.7901 13.3693 70.2816 13.3693C70.989 13.3693 71.5458 13.5227 71.9521 13.8295C72.3583 14.1335 72.6268 14.5412 72.7575 15.0526ZM76.1911 20.1449C75.7763 20.1449 75.4013 20.0682 75.0661 19.9148C74.7308 19.7585 74.4652 19.5327 74.2692 19.2372C74.076 18.9418 73.9794 18.5795 73.9794 18.1506C73.9794 17.7812 74.0504 17.4773 74.1925 17.2386C74.3345 17 74.5263 16.8111 74.7678 16.6719C75.0092 16.5327 75.2791 16.4276 75.5774 16.3565C75.8757 16.2855 76.1797 16.2315 76.4893 16.1946C76.8814 16.1491 77.1996 16.1122 77.4439 16.0838C77.6882 16.0526 77.8658 16.0028 77.9766 15.9347C78.0874 15.8665 78.1428 15.7557 78.1428 15.6023V15.5724C78.1428 15.2003 78.0376 14.9119 77.8274 14.7074C77.62 14.5028 77.3104 14.4006 76.8984 14.4006C76.4695 14.4006 76.1314 14.4957 75.8842 14.6861C75.6399 14.8736 75.4709 15.0824 75.3771 15.3125L74.1797 15.0398C74.3217 14.642 74.5291 14.321 74.8018 14.0767C75.0774 13.8295 75.3942 13.6506 75.7521 13.5398C76.1101 13.4261 76.4865 13.3693 76.8814 13.3693C77.1428 13.3693 77.4197 13.4006 77.7124 13.4631C78.0078 13.5227 78.2834 13.6335 78.5391 13.7955C78.7976 13.9574 79.0092 14.1889 79.174 14.4901C79.3388 14.7884 79.4212 15.1761 79.4212 15.6534V20H78.1768V19.1051H78.1257C78.0433 19.2699 77.9197 19.4318 77.755 19.5909C77.5902 19.75 77.3786 19.8821 77.12 19.9872C76.8615 20.0923 76.5518 20.1449 76.1911 20.1449ZM76.468 19.1222C76.8203 19.1222 77.1214 19.0526 77.3714 18.9134C77.6243 18.7741 77.8161 18.5923 77.9467 18.3679C78.0803 18.1406 78.147 17.8977 78.147 17.6392V16.7955C78.1016 16.8409 78.0135 16.8835 77.8828 16.9233C77.755 16.9602 77.6087 16.9929 77.4439 17.0213C77.2791 17.0469 77.1186 17.071 76.9624 17.0938C76.8061 17.1136 76.6754 17.1307 76.5703 17.1449C76.3232 17.1761 76.0973 17.2287 75.8928 17.3026C75.6911 17.3764 75.5291 17.483 75.407 17.6222C75.2876 17.7585 75.228 17.9403 75.228 18.1676C75.228 18.483 75.3445 18.7216 75.5774 18.8835C75.8104 19.0426 76.1072 19.1222 76.468 19.1222ZM83.8626 22.5909C83.3427 22.5909 82.8952 22.5227 82.5202 22.3864C82.1481 22.25 81.8441 22.0696 81.6083 21.8452C81.3725 21.6207 81.1964 21.375 81.0799 21.108L82.1751 20.6562C82.2518 20.7812 82.354 20.9134 82.4819 21.0526C82.6126 21.1946 82.7887 21.3153 83.0103 21.4148C83.2347 21.5142 83.5231 21.5639 83.8754 21.5639C84.3583 21.5639 84.7575 21.446 85.0728 21.2102C85.3881 20.9773 85.5458 20.6051 85.5458 20.0938V18.8068H85.4648C85.3881 18.946 85.2773 19.1009 85.1325 19.2713C84.9904 19.4418 84.7944 19.5895 84.5444 19.7145C84.2944 19.8395 83.9691 19.902 83.5685 19.902C83.0515 19.902 82.5856 19.7812 82.1708 19.5398C81.7589 19.2955 81.4322 18.9361 81.1907 18.4616C80.9521 17.9844 80.8327 17.3977 80.8327 16.7017C80.8327 16.0057 80.9506 15.4091 81.1864 14.9119C81.4251 14.4148 81.7518 14.0341 82.1665 13.7699C82.5813 13.5028 83.0515 13.3693 83.5771 13.3693C83.9833 13.3693 84.3114 13.4375 84.5614 13.5739C84.8114 13.7074 85.006 13.8636 85.1452 14.0426C85.2873 14.2216 85.3967 14.3793 85.4734 14.5156H85.5671V13.4545H86.8157V20.1449C86.8157 20.7074 86.685 21.169 86.4237 21.5298C86.1623 21.8906 85.8086 22.1577 85.3626 22.331C84.9194 22.5043 84.4194 22.5909 83.8626 22.5909ZM83.8498 18.8452C84.2163 18.8452 84.5259 18.7599 84.7788 18.5895C85.0344 18.4162 85.2276 18.169 85.3583 17.848C85.4918 17.5241 85.5586 17.1364 85.5586 16.6847C85.5586 16.2443 85.4933 15.8565 85.3626 15.5213C85.2319 15.1861 85.0401 14.9247 84.7873 14.7372C84.5344 14.5469 84.2219 14.4517 83.8498 14.4517C83.4663 14.4517 83.1467 14.5511 82.891 14.75C82.6353 14.946 82.4421 15.2131 82.3114 15.5511C82.1836 15.8892 82.1197 16.267 82.1197 16.6847C82.1197 17.1136 82.185 17.4901 82.3157 17.8139C82.4464 18.1378 82.6396 18.3906 82.8952 18.5724C83.1538 18.7543 83.4719 18.8452 83.8498 18.8452ZM91.3455 20.1321C90.7006 20.1321 90.1452 19.9943 89.6793 19.7188C89.2163 19.4403 88.8583 19.0497 88.6055 18.5469C88.3555 18.0412 88.2305 17.4489 88.2305 16.7699C88.2305 16.0994 88.3555 15.5085 88.6055 14.9972C88.8583 14.4858 89.2106 14.0866 89.6623 13.7997C90.1168 13.5128 90.6481 13.3693 91.256 13.3693C91.6254 13.3693 91.9833 13.4304 92.3299 13.5526C92.6765 13.6747 92.9876 13.8665 93.2631 14.1278C93.5387 14.3892 93.756 14.7287 93.9151 15.1463C94.0742 15.5611 94.1538 16.0653 94.1538 16.6591V17.1108H88.9506V16.1562H92.9052C92.9052 15.821 92.837 15.5241 92.7006 15.2656C92.5643 15.0043 92.3725 14.7983 92.1254 14.6477C91.881 14.4972 91.5941 14.4219 91.2646 14.4219C90.9066 14.4219 90.5941 14.5099 90.3271 14.6861C90.0629 14.8594 89.8583 15.0866 89.7134 15.3679C89.5714 15.6463 89.5004 15.9489 89.5004 16.2756V17.0213C89.5004 17.4588 89.5771 17.831 89.7305 18.1378C89.8867 18.4446 90.104 18.679 90.3825 18.8409C90.6609 19 90.9862 19.0795 91.3583 19.0795C91.5998 19.0795 91.82 19.0455 92.0188 18.9773C92.2177 18.9062 92.3896 18.8011 92.5344 18.6619C92.6793 18.5227 92.7901 18.3509 92.8668 18.1463L94.0728 18.3636C93.9762 18.7187 93.8029 19.0298 93.5529 19.2969C93.3058 19.5611 92.9947 19.767 92.6197 19.9148C92.2475 20.0597 91.8228 20.1321 91.3455 20.1321Z" fill="white"/>
<g clip-path="url(#clip0_34_1769)">
<path d="M113.667 9.33325L109 22.6666L106.333 16.6666M113.667 9.33325L100.333 13.9999L106.333 16.6666M113.667 9.33325L106.333 16.6666" stroke="white" stroke-width="1.5" stroke-linecap="round" stroke-linejoin="round"/>
</g>
<defs>
<clipPath id="clip0_34_1769">
<rect width="16" height="16" fill="white" transform="translate(99 8)"/>
</clipPath>
</defs>
</svg>
