<svg width="149" height="40" viewBox="0 0 149 40" fill="none" xmlns="http://www.w3.org/2000/svg">
<g clip-path="url(#clip0_34_1637)">
<path d="M20.3318 6.95654H6.3329C3.11148 6.95654 0.5 9.61098 0.5 12.8854V27.1146C0.5 30.3891 3.11148 33.0435 6.3329 33.0435H20.3318C23.5533 33.0435 26.1647 30.3891 26.1647 27.1146V12.8854C26.1647 9.61098 23.5533 6.95654 20.3318 6.95654Z" fill="url(#paint0_linear_34_1637)"/>
<mask id="mask0_34_1637" style="mask-type:luminance" maskUnits="userSpaceOnUse" x="3" y="10" width="20" height="18">
<path d="M22.735 10.4534H3.06786V27.9376H22.735V10.4534Z" fill="white"/>
</mask>
<g mask="url(#mask0_34_1637)">
<path d="M14.6187 27.5775C12.2524 27.5775 10.334 25.6448 10.334 23.2605H20.0159L22.3312 27.5775H14.6187Z" fill="white" fill-opacity="0.81"/>
<path d="M7.08882 20.1157C8.28926 18.0865 10.8951 17.422 12.9091 18.6315L7.90986 27.0822L3.06767 26.913L7.08882 20.1157Z" fill="white" fill-opacity="0.52"/>
<path d="M17.098 17.3869C18.228 19.4568 17.4786 22.0577 15.4242 23.1962L10.7185 14.5761L13.313 10.4534L17.098 17.3869Z" fill="white"/>
</g>
<path d="M37.6459 13.3961C38.5056 13.3961 39.2137 13.544 39.77 13.8397C40.3263 14.118 40.7478 14.4224 41.0343 14.7528C41.3378 15.0833 41.5232 15.3094 41.5906 15.4312H41.7929V13.657H45.6365V27.4855H41.7929V25.7113H41.5906C41.5232 25.833 41.3378 26.0592 41.0343 26.3897C40.7478 26.7202 40.3263 27.0333 39.77 27.329C39.2137 27.6073 38.5056 27.7464 37.6459 27.7464C36.6513 27.7464 35.7831 27.5464 35.0414 27.1464C34.3165 26.7289 33.7096 26.1809 33.2207 25.5026C32.7319 24.8068 32.361 24.0327 32.1081 23.1804C31.8721 22.3281 31.7541 21.4584 31.7541 20.5712C31.7541 19.6841 31.8721 18.8144 32.1081 17.9621C32.361 17.1098 32.7319 16.3445 33.2207 15.666C33.7096 14.9702 34.3165 14.4224 35.0414 14.0223C35.7831 13.6048 36.6513 13.3961 37.6459 13.3961ZM38.7585 16.6053C38.0674 16.6053 37.4858 16.8054 37.0137 17.2054C36.5586 17.5881 36.213 18.0839 35.977 18.6926C35.7579 19.3015 35.6482 19.9276 35.6482 20.5712C35.6482 21.2148 35.7579 21.8411 35.977 22.4498C36.213 23.0587 36.5586 23.5631 37.0137 23.9631C37.4858 24.3459 38.0674 24.5371 38.7585 24.5371C39.4497 24.5371 40.0229 24.3459 40.478 23.9631C40.95 23.5631 41.2956 23.0587 41.5148 22.4498C41.7508 21.8411 41.8688 21.2148 41.8688 20.5712C41.8688 19.9276 41.7508 19.3015 41.5148 18.6926C41.2956 18.0839 40.95 17.5881 40.478 17.2054C40.0229 16.8054 39.4497 16.6053 38.7585 16.6053Z" fill="#FF7701"/>
<path d="M37.6459 13.3961C38.5056 13.3961 39.2137 13.544 39.77 13.8397C40.3263 14.118 40.7478 14.4224 41.0343 14.7528C41.3378 15.0833 41.5232 15.3094 41.5906 15.4312H41.7929V13.657H45.6365V27.4855H41.7929V25.7113H41.5906C41.5232 25.833 41.3378 26.0592 41.0343 26.3897C40.7478 26.7202 40.3263 27.0333 39.77 27.329C39.2137 27.6073 38.5056 27.7464 37.6459 27.7464C36.6513 27.7464 35.7831 27.5464 35.0414 27.1464C34.3165 26.7289 33.7096 26.1809 33.2207 25.5026C32.7319 24.8068 32.361 24.0327 32.1081 23.1804C31.8721 22.3281 31.7541 21.4584 31.7541 20.5712C31.7541 19.6841 31.8721 18.8144 32.1081 17.9621C32.361 17.1098 32.7319 16.3445 33.2207 15.666C33.7096 14.9702 34.3165 14.4224 35.0414 14.0223C35.7831 13.6048 36.6513 13.3961 37.6459 13.3961ZM38.7585 16.6053C38.0674 16.6053 37.4858 16.8054 37.0137 17.2054C36.5586 17.5881 36.213 18.0839 35.977 18.6926C35.7579 19.3015 35.6482 19.9276 35.6482 20.5712C35.6482 21.2148 35.7579 21.8411 35.977 22.4498C36.213 23.0587 36.5586 23.5631 37.0137 23.9631C37.4858 24.3459 38.0674 24.5371 38.7585 24.5371C39.4497 24.5371 40.0229 24.3459 40.478 23.9631C40.95 23.5631 41.2956 23.0587 41.5148 22.4498C41.7508 21.8411 41.8688 21.2148 41.8688 20.5712C41.8688 19.9276 41.7508 19.3015 41.5148 18.6926C41.2956 18.0839 40.95 17.5881 40.478 17.2054C40.0229 16.8054 39.4497 16.6053 38.7585 16.6053Z" fill="black"/>
<path d="M48.9018 32.5734V13.657H52.7454V15.4312H52.9224C53.0067 15.3094 53.1922 15.0833 53.4787 14.7528C53.7822 14.4224 54.212 14.118 54.7683 13.8397C55.3247 13.544 56.0327 13.3961 56.8924 13.3961C57.887 13.3961 58.7467 13.6048 59.4717 14.0223C60.2133 14.4224 60.8287 14.9702 61.3176 15.666C61.8065 16.3445 62.1688 17.1098 62.4048 17.9621C62.6577 18.8144 62.7842 19.6842 62.7842 20.5712C62.7842 21.4584 62.6577 22.3281 62.4048 23.1804C62.1688 24.0327 61.8065 24.8068 61.3176 25.5026C60.8287 26.1809 60.2133 26.7289 59.4717 27.1464C58.7467 27.5464 57.887 27.7464 56.8924 27.7464C56.0327 27.7464 55.3247 27.6073 54.7683 27.329C54.212 27.0333 53.7822 26.7202 53.4787 26.3897C53.1922 26.0592 53.0067 25.833 52.9224 25.7113H52.7454V32.5734H48.9018ZM52.6695 20.5712C52.6695 21.2148 52.7791 21.8411 52.9983 22.4498C53.2343 23.0587 53.5798 23.5631 54.035 23.9631C54.507 24.3459 55.0887 24.5371 55.7798 24.5371C56.4709 24.5371 57.0441 24.3459 57.4993 23.9631C57.9713 23.5631 58.3169 23.0587 58.5361 22.4498C58.7721 21.8411 58.8901 21.2148 58.8901 20.5712C58.8901 19.9276 58.7721 19.3015 58.5361 18.6927C58.3169 18.0839 57.9713 17.5881 57.4993 17.2054C57.0441 16.8054 56.4709 16.6053 55.7798 16.6053C55.0887 16.6053 54.507 16.8054 54.035 17.2054C53.5798 17.5881 53.2343 18.0839 52.9983 18.6927C52.7791 19.3015 52.6695 19.9276 52.6695 20.5712Z" fill="#FF7701"/>
<path d="M48.9018 32.5734V13.657H52.7454V15.4312H52.9224C53.0067 15.3094 53.1922 15.0833 53.4787 14.7528C53.7822 14.4224 54.212 14.118 54.7683 13.8397C55.3247 13.544 56.0327 13.3961 56.8924 13.3961C57.887 13.3961 58.7467 13.6048 59.4717 14.0223C60.2133 14.4224 60.8287 14.9702 61.3176 15.666C61.8065 16.3445 62.1688 17.1098 62.4048 17.9621C62.6577 18.8144 62.7842 19.6842 62.7842 20.5712C62.7842 21.4584 62.6577 22.3281 62.4048 23.1804C62.1688 24.0327 61.8065 24.8068 61.3176 25.5026C60.8287 26.1809 60.2133 26.7289 59.4717 27.1464C58.7467 27.5464 57.887 27.7464 56.8924 27.7464C56.0327 27.7464 55.3247 27.6073 54.7683 27.329C54.212 27.0333 53.7822 26.7202 53.4787 26.3897C53.1922 26.0592 53.0067 25.833 52.9224 25.7113H52.7454V32.5734H48.9018ZM52.6695 20.5712C52.6695 21.2148 52.7791 21.8411 52.9983 22.4498C53.2343 23.0587 53.5798 23.5631 54.035 23.9631C54.507 24.3459 55.0887 24.5371 55.7798 24.5371C56.4709 24.5371 57.0441 24.3459 57.4993 23.9631C57.9713 23.5631 58.3169 23.0587 58.5361 22.4498C58.7721 21.8411 58.8901 21.2148 58.8901 20.5712C58.8901 19.9276 58.7721 19.3015 58.5361 18.6927C58.3169 18.0839 57.9713 17.5881 57.4993 17.2054C57.0441 16.8054 56.4709 16.6053 55.7798 16.6053C55.0887 16.6053 54.507 16.8054 54.035 17.2054C53.5798 17.5881 53.2343 18.0839 52.9983 18.6927C52.7791 19.3015 52.6695 19.9276 52.6695 20.5712Z" fill="black"/>
<path d="M67.8155 11.7784C67.1412 11.7784 66.5933 11.561 66.1718 11.1262C65.7504 10.6739 65.5397 10.1434 65.5397 9.53459C65.5397 8.89099 65.7504 8.35177 66.1718 7.9169C66.5933 7.46465 67.1412 7.23853 67.8155 7.23853C68.4561 7.23853 68.9955 7.46465 69.4338 7.9169C69.8721 8.35177 70.0912 8.89099 70.0912 9.53459C70.0912 10.1434 69.8721 10.6739 69.4338 11.1262C68.9955 11.561 68.4561 11.7784 67.8155 11.7784ZM65.8937 27.4855V13.657H69.7372V27.4855H65.8937Z" fill="#FF7701"/>
<path d="M67.8155 11.7784C67.1412 11.7784 66.5933 11.561 66.1718 11.1262C65.7504 10.6739 65.5397 10.1434 65.5397 9.53459C65.5397 8.89099 65.7504 8.35177 66.1718 7.9169C66.5933 7.46465 67.1412 7.23853 67.8155 7.23853C68.4561 7.23853 68.9955 7.46465 69.4338 7.9169C69.8721 8.35177 70.0912 8.89099 70.0912 9.53459C70.0912 10.1434 69.8721 10.6739 69.4338 11.1262C68.9955 11.561 68.4561 11.7784 67.8155 11.7784ZM65.8937 27.4855V13.657H69.7372V27.4855H65.8937Z" fill="black"/>
<path d="M73.2752 27.4856V7.65601H77.118V27.4856H73.2752Z" fill="url(#paint1_linear_34_1637)"/>
<path d="M85.873 13.3961C86.7333 13.3961 87.441 13.544 87.9978 13.8397C88.5537 14.118 88.9749 14.4224 89.2613 14.7528C89.5649 15.0833 89.7508 15.3094 89.8181 15.4312H90.0202V13.657H93.8638V27.4855H90.0202V25.7113H89.8181C89.7508 25.833 89.5649 26.0592 89.2613 26.3897C88.9749 26.7202 88.5537 27.0333 87.9978 27.329C87.441 27.6073 86.7333 27.7464 85.873 27.7464C84.8789 27.7464 84.0105 27.5464 83.2687 27.1464C82.544 26.7289 81.9369 26.1809 81.4483 25.5026C80.9589 24.8068 80.588 24.0327 80.3357 23.1804C80.0995 22.3281 79.9818 21.4584 79.9818 20.5712C79.9818 19.6841 80.0995 18.8144 80.3357 17.9621C80.588 17.1098 80.9589 16.3445 81.4483 15.666C81.9369 14.9702 82.544 14.4224 83.2687 14.0223C84.0105 13.6048 84.8789 13.3961 85.873 13.3961ZM86.9857 16.6053C86.2951 16.6053 85.7132 16.8054 85.2408 17.2054C84.7864 17.5881 84.4406 18.0839 84.2044 18.6926C83.9853 19.3015 83.8758 19.9276 83.8758 20.5712C83.8758 21.2148 83.9853 21.8411 84.2044 22.4498C84.4406 23.0587 84.7864 23.5631 85.2408 23.9631C85.7132 24.3459 86.2951 24.5371 86.9857 24.5371C87.6772 24.5371 88.2501 24.3459 88.7055 23.9631C89.1778 23.5631 89.5227 23.0587 89.7418 22.4498C89.978 21.8411 90.0965 21.2148 90.0965 20.5712C90.0965 19.9276 89.978 19.3015 89.7418 18.6926C89.5227 18.0839 89.1778 17.5881 88.7055 17.2054C88.2501 16.8054 87.6772 16.6053 86.9857 16.6053Z" fill="url(#paint2_linear_34_1637)"/>
<path d="M97.1291 32.5734V13.657H100.973V15.4312H101.15C101.234 15.3094 101.419 15.0833 101.706 14.7528C102.009 14.4224 102.439 14.118 102.996 13.8397C103.552 13.544 104.26 13.3961 105.12 13.3961C106.114 13.3961 106.974 13.6048 107.699 14.0223C108.441 14.4224 109.056 14.9702 109.545 15.666C110.034 16.3445 110.396 17.1098 110.632 17.9621C110.885 18.8144 111.012 19.6842 111.012 20.5712C111.012 21.4584 110.885 22.3281 110.632 23.1804C110.396 24.0327 110.034 24.8068 109.545 25.5026C109.056 26.1809 108.441 26.7289 107.699 27.1464C106.974 27.5464 106.114 27.7464 105.12 27.7464C104.26 27.7464 103.552 27.6073 102.996 27.329C102.439 27.0333 102.009 26.7202 101.706 26.3897C101.419 26.0592 101.234 25.833 101.15 25.7113H100.973V32.5734H97.1291ZM100.897 20.5712C100.897 21.2148 101.007 21.8411 101.226 22.4498C101.461 23.0587 101.807 23.5631 102.262 23.9631C102.735 24.3459 103.316 24.5371 104.007 24.5371C104.699 24.5371 105.272 24.3459 105.727 23.9631C106.198 23.5631 106.544 23.0587 106.763 22.4498C107 21.8411 107.117 21.2148 107.117 20.5712C107.117 19.9276 107 19.3015 106.763 18.6927C106.544 18.0839 106.198 17.5881 105.727 17.2054C105.272 16.8054 104.699 16.6053 104.007 16.6053C103.316 16.6053 102.735 16.8054 102.262 17.2054C101.807 17.5881 101.461 18.0839 101.226 18.6927C101.007 19.3015 100.897 19.9276 100.897 20.5712Z" fill="url(#paint3_linear_34_1637)"/>
<path d="M113.871 27.4856V7.65601H117.715V27.4856H113.871Z" fill="url(#paint4_linear_34_1637)"/>
<path d="M126.47 13.3961C127.33 13.3961 128.038 13.544 128.594 13.8397C129.151 14.118 129.572 14.4224 129.858 14.7528C130.162 15.0833 130.348 15.3094 130.415 15.4312H130.617V13.657H134.461V27.4855H130.617V25.7113H130.415C130.348 25.833 130.162 26.0592 129.858 26.3897C129.572 26.7202 129.151 27.0333 128.594 27.329C128.038 27.6073 127.33 27.7464 126.47 27.7464C125.476 27.7464 124.607 27.5464 123.866 27.1464C123.141 26.7289 122.534 26.1809 122.045 25.5026C121.556 24.8068 121.185 24.0327 120.933 23.1804C120.696 22.3281 120.578 21.4584 120.578 20.5712C120.578 19.6841 120.696 18.8144 120.933 17.9621C121.185 17.1098 121.556 16.3445 122.045 15.666C122.534 14.9702 123.141 14.4224 123.866 14.0223C124.607 13.6048 125.476 13.3961 126.47 13.3961ZM127.583 16.6053C126.891 16.6053 126.31 16.8054 125.838 17.2054C125.382 17.5881 125.038 18.0839 124.801 18.6926C124.582 19.3015 124.473 19.9276 124.473 20.5712C124.473 21.2148 124.582 21.8411 124.801 22.4498C125.038 23.0587 125.382 23.5631 125.838 23.9631C126.31 24.3459 126.891 24.5371 127.583 24.5371C128.274 24.5371 128.847 24.3459 129.302 23.9631C129.774 23.5631 130.12 23.0587 130.339 22.4498C130.575 21.8411 130.693 21.2148 130.693 20.5712C130.693 19.9276 130.575 19.3015 130.339 18.6926C130.12 18.0839 129.774 17.5881 129.302 17.2054C128.847 16.8054 128.274 16.6053 127.583 16.6053Z" fill="url(#paint5_linear_34_1637)"/>
<path d="M143.038 27.7464C141.925 27.7464 141.007 27.5899 140.282 27.2767C139.557 26.9637 138.975 26.581 138.537 26.1287C138.116 25.6591 137.795 25.1982 137.576 24.7459C137.374 24.2763 137.239 23.8849 137.171 23.5718C137.121 23.2587 137.096 23.1021 137.096 23.1021H140.661C140.661 23.1021 140.686 23.1891 140.737 23.363C140.788 23.537 140.897 23.737 141.066 23.9631C141.251 24.1893 141.512 24.3893 141.85 24.5633C142.187 24.7372 142.642 24.8241 143.215 24.8241C143.924 24.8241 144.403 24.6763 144.656 24.3806C144.926 24.0849 145.061 23.7892 145.061 23.4935C145.061 22.8673 144.564 22.4498 143.569 22.2411L141.749 21.8758C140.973 21.7193 140.24 21.4932 139.548 21.1975C138.874 20.8844 138.326 20.4582 137.905 19.919C137.501 19.3623 137.298 18.6492 137.298 17.7794C137.298 16.9445 137.509 16.1965 137.93 15.5356C138.351 14.8746 138.95 14.3528 139.725 13.9701C140.518 13.5874 141.462 13.3961 142.558 13.3961C143.586 13.3961 144.437 13.544 145.112 13.8397C145.803 14.118 146.351 14.4746 146.755 14.9094C147.16 15.3268 147.464 15.753 147.666 16.1878C147.868 16.6053 147.994 16.9619 148.045 17.2576C148.112 17.5359 148.146 17.6751 148.146 17.6751H144.707C144.707 17.6751 144.656 17.562 144.555 17.3359C144.454 17.0924 144.243 16.8576 143.924 16.6315C143.62 16.3879 143.148 16.2661 142.507 16.2661C141.85 16.2661 141.395 16.4053 141.141 16.6836C140.889 16.9445 140.762 17.2229 140.762 17.5186C140.762 17.8665 140.905 18.1273 141.193 18.3013C141.495 18.4752 141.883 18.6144 142.356 18.7188L144.1 19.0841C145.381 19.3449 146.435 19.8059 147.261 20.4669C148.087 21.1105 148.5 22.0498 148.5 23.2848C148.5 24.1197 148.289 24.8764 147.868 25.5547C147.447 26.2331 146.831 26.7723 146.022 27.1724C145.213 27.5551 144.218 27.7464 143.038 27.7464Z" fill="url(#paint6_linear_34_1637)"/>
</g>
<defs>
<linearGradient id="paint0_linear_34_1637" x1="0.499999" y1="8.60086" x2="19.6417" y2="35.8773" gradientUnits="userSpaceOnUse">
<stop stop-color="#FF9100"/>
<stop offset="0.9999" stop-color="#F543CB"/>
</linearGradient>
<linearGradient id="paint1_linear_34_1637" x1="70.2953" y1="7.23854" x2="148.744" y2="26.9968" gradientUnits="userSpaceOnUse">
<stop stop-color="#FE8C0A"/>
<stop offset="1" stop-color="#F648BF"/>
</linearGradient>
<linearGradient id="paint2_linear_34_1637" x1="70.2953" y1="7.23847" x2="148.744" y2="26.9967" gradientUnits="userSpaceOnUse">
<stop stop-color="#FE8C0A"/>
<stop offset="1" stop-color="#F648BF"/>
</linearGradient>
<linearGradient id="paint3_linear_34_1637" x1="70.2953" y1="7.23847" x2="148.744" y2="26.9967" gradientUnits="userSpaceOnUse">
<stop stop-color="#FE8C0A"/>
<stop offset="1" stop-color="#F648BF"/>
</linearGradient>
<linearGradient id="paint4_linear_34_1637" x1="70.2952" y1="7.23854" x2="148.744" y2="26.9968" gradientUnits="userSpaceOnUse">
<stop stop-color="#FE8C0A"/>
<stop offset="1" stop-color="#F648BF"/>
</linearGradient>
<linearGradient id="paint5_linear_34_1637" x1="70.2952" y1="7.23847" x2="148.744" y2="26.9967" gradientUnits="userSpaceOnUse">
<stop stop-color="#FE8C0A"/>
<stop offset="1" stop-color="#F648BF"/>
</linearGradient>
<linearGradient id="paint6_linear_34_1637" x1="70.2952" y1="7.23847" x2="148.744" y2="26.9967" gradientUnits="userSpaceOnUse">
<stop stop-color="#FE8C0A"/>
<stop offset="1" stop-color="#F648BF"/>
</linearGradient>
<clipPath id="clip0_34_1637">
<rect width="148" height="40" fill="white" transform="translate(0.5)"/>
</clipPath>
</defs>
</svg>