<svg width="173" height="46" viewBox="0 0 173 46" fill="none" xmlns="http://www.w3.org/2000/svg">
<g clip-path="url(#clip0_585_4875)">
<rect y="6.10196" width="33.7961" height="33.7961" rx="8.93288" fill="black"/>
<rect y="6.10196" width="33.7961" height="33.7961" rx="8.93288" fill="url(#paint0_linear_585_4875)"/>
<path d="M17.297 16.1178C19.288 15.8046 21.0881 17.3435 21.0881 19.359V26.1842C21.0881 27.706 20.0418 29.0279 18.5607 29.3775L13.0002 30.6889C12.631 30.776 12.4186 31.1797 12.2101 31.4967V31.4967L10.5763 33.982C10.2505 34.4775 9.53653 34.5119 9.16422 34.0504L7.50602 31.9947V31.9947C7.42619 31.8957 7.32036 31.8152 7.19501 31.7938C5.67885 31.5349 4.46603 30.217 4.46598 28.5582V20.941C4.46614 19.3259 5.64189 17.9508 7.23746 17.6998L17.297 16.1178Z" fill="white" fill-opacity="0.51"/>
<path d="M25.473 11.8003C27.4639 11.4873 29.264 13.0261 29.264 15.0415V24.1372C29.264 25.6591 28.2169 26.9821 26.7357 27.3315L19.7318 28.9835C19.4175 29.0577 19.2228 29.3723 19.0453 29.6421V29.6421L16.8383 32.9976C16.5123 33.4926 15.7983 33.5274 15.4262 33.0659L13.6821 30.9029C13.4559 30.6223 13.1041 30.4841 12.7455 30.4481C11.1278 30.2857 9.79542 28.9218 9.7953 27.1831V17.0718C9.7953 15.4565 10.9711 14.0816 12.5668 13.8306L25.473 11.8003Z" fill="white"/>
<path d="M41.2402 29.2872V12.818H44.6675V26.305H52.7241V29.2872H41.2402Z" fill="black"/>
<path d="M59.7181 17.2692C60.4748 17.2692 61.0979 17.3953 61.5875 17.6475C62.0772 17.8849 62.4481 18.1446 62.7003 18.4265C62.9674 18.7084 63.1306 18.9012 63.19 19.0051H63.368V17.4917H66.7509V29.2872H63.368V27.7738H63.19C63.1306 27.8777 62.9674 28.0706 62.7003 28.3525C62.4481 28.6344 62.0772 28.9015 61.5875 29.1537C61.0979 29.3911 60.4748 29.5098 59.7181 29.5098C58.8427 29.5098 58.0786 29.3391 57.4257 28.9979C56.7877 28.6418 56.2536 28.1744 55.8233 27.5958C55.3931 27.0023 55.0666 26.3421 54.8441 25.615C54.6364 24.888 54.5325 24.1462 54.5325 23.3895C54.5325 22.6328 54.6364 21.8909 54.8441 21.1639C55.0666 20.4369 55.3931 19.7841 55.8233 19.2054C56.2536 18.6119 56.7877 18.1446 57.4257 17.8033C58.0786 17.4472 58.8427 17.2692 59.7181 17.2692ZM60.6973 20.0066C60.089 20.0066 59.5771 20.1772 59.1617 20.5185C58.7611 20.8449 58.4569 21.2678 58.2492 21.7871C58.0563 22.3064 57.9599 22.8405 57.9599 23.3895C57.9599 23.9384 58.0563 24.4726 58.2492 24.9919C58.4569 25.5112 58.7611 25.9415 59.1617 26.2827C59.5771 26.6091 60.089 26.7723 60.6973 26.7723C61.3056 26.7723 61.8101 26.6091 62.2107 26.2827C62.6261 25.9415 62.9303 25.5112 63.1232 24.9919C63.3309 24.4726 63.4348 23.9384 63.4348 23.3895C63.4348 22.8405 63.3309 22.3064 63.1232 21.7871C62.9303 21.2678 62.6261 20.8449 62.2107 20.5185C61.8101 20.1772 61.3056 20.0066 60.6973 20.0066Z" fill="black"/>
<path d="M69.6248 33.6271V17.4917H73.0076V19.0051H73.1634C73.2376 18.9012 73.4008 18.7084 73.6531 18.4265C73.9201 18.1446 74.2985 17.8849 74.7881 17.6475C75.2777 17.3953 75.9009 17.2692 76.6576 17.2692C77.533 17.2692 78.2897 17.4472 78.9276 17.8033C79.5805 18.1446 80.122 18.6119 80.5523 19.2054C80.9826 19.7841 81.3016 20.4369 81.5093 21.1639C81.7319 21.8909 81.8431 22.6328 81.8431 23.3895C81.8431 24.1462 81.7319 24.888 81.5093 25.615C81.3016 26.3421 80.9826 27.0023 80.5523 27.5958C80.122 28.1744 79.5805 28.6418 78.9276 28.9979C78.2897 29.3391 77.533 29.5098 76.6576 29.5098C75.9009 29.5098 75.2777 29.3911 74.7881 29.1537C74.2985 28.9015 73.9201 28.6344 73.6531 28.3525C73.4008 28.0706 73.2376 27.8777 73.1634 27.7738H73.0076V33.6271H69.6248ZM72.9409 23.3895C72.9409 23.9384 73.0373 24.4726 73.2302 24.9919C73.4379 25.5112 73.7421 25.9415 74.1427 26.2827C74.5581 26.6091 75.07 26.7723 75.6783 26.7723C76.2866 26.7723 76.7911 26.6091 77.1917 26.2827C77.6071 25.9415 77.9113 25.5112 78.1042 24.9919C78.3119 24.4726 78.4158 23.9384 78.4158 23.3895C78.4158 22.8405 78.3119 22.3064 78.1042 21.7871C77.9113 21.2678 77.6071 20.8449 77.1917 20.5185C76.7911 20.1772 76.2866 20.0066 75.6783 20.0066C75.07 20.0066 74.5581 20.1772 74.1427 20.5185C73.7421 20.8449 73.4379 21.2678 73.2302 21.7871C73.0373 22.3064 72.9409 22.8405 72.9409 23.3895Z" fill="black"/>
<path d="M84.3605 29.2872V12.3729H87.7433V29.2872H84.3605Z" fill="black"/>
<path d="M95.4488 17.2692C96.2055 17.2692 96.8287 17.3953 97.3183 17.6475C97.8079 17.8849 98.1788 18.1446 98.4311 18.4265C98.6981 18.7084 98.8613 18.9012 98.9207 19.0051H99.0987V17.4917H102.482V29.2872H99.0987V27.7738H98.9207C98.8613 27.8777 98.6981 28.0706 98.4311 28.3525C98.1788 28.6344 97.8079 28.9015 97.3183 29.1537C96.8287 29.3911 96.2055 29.5098 95.4488 29.5098C94.5734 29.5098 93.8093 29.3391 93.1565 28.9979C92.5185 28.6418 91.9843 28.1744 91.5541 27.5958C91.1238 27.0023 90.7974 26.3421 90.5748 25.615C90.3671 24.888 90.2632 24.1462 90.2632 23.3895C90.2632 22.6328 90.3671 21.8909 90.5748 21.1639C90.7974 20.4369 91.1238 19.7841 91.5541 19.2054C91.9843 18.6119 92.5185 18.1446 93.1565 17.8033C93.8093 17.4472 94.5734 17.2692 95.4488 17.2692ZM96.4281 20.0066C95.8197 20.0066 95.3079 20.1772 94.8924 20.5185C94.4918 20.8449 94.1877 21.2678 93.9799 21.7871C93.7871 22.3064 93.6906 22.8405 93.6906 23.3895C93.6906 23.9384 93.7871 24.4726 93.9799 24.9919C94.1877 25.5112 94.4918 25.9415 94.8924 26.2827C95.3079 26.6091 95.8197 26.7723 96.4281 26.7723C97.0364 26.7723 97.5408 26.6091 97.9414 26.2827C98.3569 25.9415 98.661 25.5112 98.8539 24.9919C99.0616 24.4726 99.1655 23.9384 99.1655 23.3895C99.1655 22.8405 99.0616 22.3064 98.8539 21.7871C98.661 21.2678 98.3569 20.8449 97.9414 20.5185C97.5408 20.1772 97.0364 20.0066 96.4281 20.0066Z" fill="black"/>
<path d="M110.031 29.5098C109.052 29.5098 108.243 29.3762 107.605 29.1092C106.967 28.8421 106.455 28.5157 106.069 28.1299C105.698 27.7293 105.416 27.3361 105.224 26.9504C105.046 26.5498 104.927 26.2159 104.867 25.9489C104.823 25.6818 104.801 25.5483 104.801 25.5483H107.939C107.939 25.5483 107.961 25.6225 108.006 25.7708C108.05 25.9192 108.146 26.0898 108.295 26.2827C108.458 26.4756 108.688 26.6462 108.985 26.7946C109.282 26.943 109.682 27.0171 110.187 27.0171C110.81 27.0171 111.233 26.891 111.455 26.6388C111.693 26.3866 111.811 26.1343 111.811 25.8821C111.811 25.348 111.374 24.9919 110.498 24.8138L108.896 24.5023C108.213 24.3687 107.568 24.1758 106.96 23.9236C106.366 23.6565 105.884 23.293 105.513 22.8331C105.157 22.3583 104.979 21.75 104.979 21.0081C104.979 20.2959 105.164 19.6579 105.535 19.0941C105.906 18.5303 106.433 18.0852 107.115 17.7588C107.813 17.4324 108.644 17.2692 109.608 17.2692C110.513 17.2692 111.262 17.3953 111.856 17.6475C112.464 17.8849 112.946 18.1891 113.302 18.56C113.658 18.9161 113.926 19.2796 114.104 19.6505C114.282 20.0066 114.393 20.3108 114.437 20.563C114.497 20.8004 114.526 20.9191 114.526 20.9191H111.5C111.5 20.9191 111.455 20.8227 111.366 20.6298C111.277 20.422 111.092 20.2217 110.81 20.0289C110.543 19.8211 110.127 19.7173 109.563 19.7173C108.985 19.7173 108.584 19.836 108.362 20.0734C108.139 20.2959 108.028 20.5333 108.028 20.7856C108.028 21.0823 108.154 21.3049 108.406 21.4532C108.673 21.6016 109.014 21.7203 109.43 21.8093L110.966 22.1209C112.093 22.3435 113.02 22.7366 113.747 23.3004C114.474 23.8494 114.838 24.6506 114.838 25.7041C114.838 26.4162 114.653 27.0617 114.282 27.6403C113.911 28.2189 113.369 28.6789 112.657 29.0201C111.945 29.3466 111.069 29.5098 110.031 29.5098Z" fill="black"/>
<path d="M124.789 29.5098C123.424 29.5098 122.229 29.2724 121.206 28.7976C120.197 28.308 119.351 27.6626 118.668 26.8614C117.986 26.0453 117.474 25.1328 117.133 24.1239C116.792 23.115 116.621 22.0838 116.621 21.0304C116.621 19.9918 116.792 18.968 117.133 17.9591C117.474 16.9502 117.986 16.0451 118.668 15.2439C119.351 14.4279 120.197 13.7824 121.206 13.3077C122.229 12.8329 123.424 12.5955 124.789 12.5955C125.931 12.5955 126.903 12.7439 127.704 13.0406C128.52 13.3225 129.195 13.6934 129.729 14.1534C130.278 14.5985 130.716 15.0807 131.043 15.6C131.384 16.1045 131.636 16.5867 131.799 17.0466C131.962 17.4917 132.066 17.8627 132.111 18.1594C132.17 18.4413 132.2 18.5822 132.2 18.5822H128.795C128.795 18.5822 128.765 18.4858 128.706 18.2929C128.661 18.0852 128.565 17.8404 128.416 17.5585C128.268 17.2617 128.045 16.9724 127.749 16.6905C127.467 16.4086 127.081 16.1712 126.591 15.9783C126.117 15.7706 125.523 15.6668 124.811 15.6668C123.787 15.6668 122.927 15.9338 122.229 16.468C121.547 16.9873 121.028 17.6549 120.671 18.471C120.33 19.287 120.16 20.1401 120.16 21.0304C120.16 21.9206 120.33 22.7811 120.671 23.612C121.028 24.4281 121.547 25.1032 122.229 25.6373C122.927 26.1566 123.787 26.4162 124.811 26.4162C125.523 26.4162 126.117 26.3198 126.591 26.1269C127.081 25.934 127.467 25.6966 127.749 25.4147C128.045 25.118 128.268 24.8287 128.416 24.5468C128.565 24.25 128.661 24.0052 128.706 23.8123C128.765 23.6194 128.795 23.523 128.795 23.523H132.2C132.2 23.523 132.17 23.6714 132.111 23.9681C132.066 24.25 131.962 24.6209 131.799 25.0809C131.636 25.526 131.384 26.0082 131.043 26.5275C130.716 27.032 130.278 27.5142 129.729 27.9741C129.195 28.4192 128.52 28.7902 127.704 29.0869C126.903 29.3688 125.931 29.5098 124.789 29.5098Z" fill="url(#paint1_linear_585_4875)"/>
<path d="M134.61 29.2872V12.3729H137.992V19.1832H138.104C138.237 18.9458 138.43 18.6787 138.682 18.3819C138.949 18.0852 139.298 17.8256 139.728 17.603C140.173 17.3804 140.737 17.2692 141.42 17.2692C142.34 17.2692 143.089 17.4843 143.668 17.9146C144.246 18.33 144.669 18.8716 144.936 19.5392C145.203 20.1921 145.337 20.882 145.337 21.609V29.2872H141.954V22.1877C141.954 21.6239 141.798 21.1268 141.487 20.6965C141.19 20.2663 140.708 20.0511 140.04 20.0511C139.535 20.0511 139.135 20.1698 138.838 20.4072C138.541 20.6446 138.326 20.9488 138.193 21.3197C138.059 21.6906 137.992 22.0838 137.992 22.4992V29.2872H134.61Z" fill="url(#paint2_linear_585_4875)"/>
<path d="M152.827 17.2692C153.583 17.2692 154.206 17.3953 154.696 17.6475C155.186 17.8849 155.557 18.1446 155.809 18.4265C156.076 18.7084 156.239 18.9012 156.299 19.0051H156.477V17.4917H159.859V29.2872H156.477V27.7738H156.299C156.239 27.8777 156.076 28.0706 155.809 28.3525C155.557 28.6344 155.186 28.9015 154.696 29.1537C154.206 29.3911 153.583 29.5098 152.827 29.5098C151.951 29.5098 151.187 29.3391 150.534 28.9979C149.896 28.6418 149.362 28.1744 148.932 27.5958C148.502 27.0023 148.175 26.3421 147.953 25.615C147.745 24.888 147.641 24.1462 147.641 23.3895C147.641 22.6328 147.745 21.8909 147.953 21.1639C148.175 20.4369 148.502 19.7841 148.932 19.2054C149.362 18.6119 149.896 18.1446 150.534 17.8033C151.187 17.4472 151.951 17.2692 152.827 17.2692ZM153.806 20.0066C153.198 20.0066 152.686 20.1772 152.27 20.5185C151.87 20.8449 151.565 21.2678 151.358 21.7871C151.165 22.3064 151.068 22.8405 151.068 23.3895C151.068 23.9384 151.165 24.4726 151.358 24.9919C151.565 25.5112 151.87 25.9415 152.27 26.2827C152.686 26.6091 153.198 26.7723 153.806 26.7723C154.414 26.7723 154.919 26.6091 155.319 26.2827C155.735 25.9415 156.039 25.5112 156.232 24.9919C156.439 24.4726 156.543 23.9384 156.543 23.3895C156.543 22.8405 156.439 22.3064 156.232 21.7871C156.039 21.2678 155.735 20.8449 155.319 20.5185C154.919 20.1772 154.414 20.0066 153.806 20.0066Z" fill="url(#paint3_linear_585_4875)"/>
<path d="M167.769 29.5098C166.849 29.5098 166.115 29.3762 165.566 29.1092C165.017 28.8273 164.601 28.4786 164.319 28.0632C164.037 27.6329 163.852 27.1803 163.763 26.7056C163.674 26.2308 163.629 25.7931 163.629 25.3925V20.1847H161.626V17.4917H163.629V14.5762H167.012V17.4917H169.527V20.1847H167.012V25.3035C167.012 25.7931 167.138 26.1714 167.391 26.4385C167.658 26.7056 168.095 26.8391 168.704 26.8391C168.971 26.8391 169.216 26.8168 169.438 26.7723C169.661 26.7278 169.772 26.7056 169.772 26.7056V29.3095C169.772 29.3095 169.572 29.3391 169.171 29.3985C168.77 29.4727 168.303 29.5098 167.769 29.5098Z" fill="url(#paint4_linear_585_4875)"/>
</g>
<defs>
<linearGradient id="paint0_linear_585_4875" x1="-1.24172e-07" y1="8.2322" x2="50.0468" y2="64.102" gradientUnits="userSpaceOnUse">
<stop stop-color="#FF9100"/>
<stop offset="0.9999" stop-color="#F543CB"/>
</linearGradient>
<linearGradient id="paint1_linear_585_4875" x1="41.2401" y1="13.7126" x2="50.4196" y2="75.6829" gradientUnits="userSpaceOnUse">
<stop stop-color="#FF9100"/>
<stop offset="0.9999" stop-color="#F543CB"/>
</linearGradient>
<linearGradient id="paint2_linear_585_4875" x1="41.2401" y1="13.7126" x2="50.4196" y2="75.6829" gradientUnits="userSpaceOnUse">
<stop stop-color="#FF9100"/>
<stop offset="0.9999" stop-color="#F543CB"/>
</linearGradient>
<linearGradient id="paint3_linear_585_4875" x1="41.2401" y1="13.7126" x2="50.4196" y2="75.6829" gradientUnits="userSpaceOnUse">
<stop stop-color="#FF9100"/>
<stop offset="0.9999" stop-color="#F543CB"/>
</linearGradient>
<linearGradient id="paint4_linear_585_4875" x1="41.2401" y1="13.7126" x2="50.4196" y2="75.6829" gradientUnits="userSpaceOnUse">
<stop stop-color="#FF9100"/>
<stop offset="0.9999" stop-color="#F543CB"/>
</linearGradient>
<clipPath id="clip0_585_4875">
<rect width="173" height="46" fill="white"/>
</clipPath>
</defs>
</svg>
