<svg width="32" height="32" viewBox="0 0 32 32" fill="none" xmlns="http://www.w3.org/2000/svg">
<rect width="32" height="32" rx="8.93288" fill="black"/>
<rect width="32" height="32" rx="8.93288" fill="url(#paint0_linear_585_4887)"/>
<path d="M16.1769 9.51491C18.1676 9.20206 19.9677 10.7409 19.9679 12.7561V18.8772C19.9679 20.3991 18.9208 21.7211 17.4396 22.0706L12.3233 23.2777C11.9387 23.3684 11.7231 23.8 11.506 24.1301V24.1301L10.049 26.345C9.72308 26.8404 9.00913 26.8749 8.63684 26.4133L7.1593 24.5813V24.5813C7.02954 24.4204 6.87115 24.2679 6.67137 24.2148C5.29171 23.8487 4.22864 22.5951 4.22864 21.0423V14.1995C4.22882 12.5843 5.40456 11.2093 7.00012 10.9583L16.1769 9.51491Z" fill="white" fill-opacity="0.51"/>
<path d="M23.9173 5.42694C25.9082 5.11376 27.7082 6.65276 27.7083 8.66815V16.9387C27.7083 18.4605 26.6622 19.7835 25.181 20.133L18.7032 21.6604C18.368 21.7395 18.1671 22.0865 17.9779 22.3742V22.3742L15.9788 25.4123C15.653 25.9077 14.939 25.9422 14.5667 25.4807L12.915 23.4331C12.7049 23.1726 12.385 23.034 12.0543 22.9829C10.5146 22.7454 9.2748 21.4176 9.27473 19.7404V10.5353C9.27491 8.9202 10.4507 7.54512 12.0462 7.29413L23.9173 5.42694Z" fill="white"/>
<defs>
<linearGradient id="paint0_linear_585_4887" x1="-1.17573e-07" y1="2.01703" x2="47.3871" y2="54.9176" gradientUnits="userSpaceOnUse">
<stop stop-color="#FF9100"/>
<stop offset="0.9999" stop-color="#F543CB"/>
</linearGradient>
</defs>
</svg>
